<?xml version="1.0" standalone="no"?>
<!DOCTYPE svg PUBLIC "-//W3C//DTD SVG 20010904//EN"
 "http://www.w3.org/TR/2001/REC-SVG-20010904/DTD/svg10.dtd">
<svg version="1.0" xmlns="http://www.w3.org/2000/svg"
 width="260.000000pt" height="260.000000pt" viewBox="0 0 260.000000 260.000000"
 preserveAspectRatio="xMidYMid meet">
<metadata>
Created by potrace 1.14, written by Peter Selinger 2001-2017
</metadata>
<g transform="translate(0.000000,260.000000) scale(0.100000,-0.100000)"
fill="#000000" stroke="none">
<path d="M335 2586 c-162 -40 -289 -172 -324 -334 -16 -74 -16 -1830 0 -1904
36 -166 171 -301 337 -337 74 -16 1830 -16 1904 0 166 36 301 171 337 337 16
74 16 1830 0 1904 -36 167 -171 302 -337 337 -79 17 -1849 14 -1917 -3z m1189
-662 c12 -5 16 -20 16 -64 0 -63 -6 -70 -61 -70 -23 0 -32 6 -40 27 -12 31 -3
94 14 105 15 9 50 10 71 2z m-664 -129 l0 -106 29 22 c41 30 116 36 161 12 58
-30 74 -72 78 -199 4 -101 6 -111 26 -120 13 -5 22 -20 24 -37 6 -47 -12 -57
-100 -57 -94 0 -118 10 -118 48 0 33 16 52 43 52 19 0 20 6 14 94 -7 115 -16
136 -61 136 -67 0 -95 -52 -96 -172 0 -49 3 -58 18 -58 42 0 60 -70 23 -90
-31 -16 -176 -13 -190 4 -19 23 -9 70 17 81 22 10 22 12 22 200 0 188 0 190
-22 200 -15 6 -24 21 -26 38 -5 46 12 57 89 57 l69 0 0 -105z m-406 54 c27 -8
41 -8 49 0 17 17 64 13 71 -5 3 -9 6 -47 6 -84 0 -59 -3 -71 -20 -80 -29 -15
-58 -4 -75 30 -20 39 -53 60 -92 60 -72 0 -115 -49 -79 -89 10 -11 62 -31 117
-46 124 -34 163 -65 174 -138 14 -89 -28 -156 -114 -185 -42 -15 -170 -16
-207 -2 -19 8 -30 8 -38 0 -14 -14 -59 -13 -74 2 -16 16 -16 170 0 186 23 23
58 14 76 -20 9 -18 30 -45 45 -60 50 -48 151 -47 177 2 25 48 -10 77 -133 111
-92 26 -124 44 -147 82 -52 84 3 206 107 237 40 12 112 12 157 -1z m1556 -69
l5 -75 89 -5 c97 -5 114 -16 103 -62 -8 -31 -30 -38 -124 -38 l-73 0 0 -47 c0
-83 11 -123 37 -140 23 -15 30 -15 105 7 91 26 113 21 113 -26 0 -75 -217
-125 -301 -69 -46 30 -57 60 -62 171 l-5 104 -26 0 c-48 0 -75 36 -60 78 7 18
16 22 49 22 l40 0 0 61 c0 84 11 101 63 97 l42 -3 5 -75z m-462 -212 l3 -158
64 0 c67 0 95 -14 95 -50 0 -45 -21 -50 -206 -50 -102 0 -183 4 -195 10 -12 7
-19 21 -19 40 0 38 23 50 94 50 l56 0 0 110 0 110 -38 0 c-45 0 -62 14 -62 52
0 39 24 48 120 45 l85 -2 3 -157z"/>
</g>
</svg>
